<?xml version="1.0" encoding="UTF-8"?>
<svg width="538px" height="406px" viewBox="0 0 538 406" version="1.1" xmlns="http://www.w3.org/2000/svg" xmlns:xlink="http://www.w3.org/1999/xlink">
    <title>Artboard</title>
    <g id="Artboard" stroke="none" fill="none">
        <path id="Line" d="M56.5,9.44040671 L57.8073633,11.7646081 L66.8073633,27.7646081 L67.5427552,29.0719714 L64.9280286,30.5427552 L64.1926367,29.2353919 L58,18.226 L58,389 L55,389 L55,18.226 L48.8073633,29.2353919 L48.0719714,30.5427552 L45.4572448,29.0719714 L46.1926367,27.7646081 L55.1926367,11.7646081 L56.5,9.44040671 Z" fill="#000000" fill-rule="nonzero"></path>
        <path id="Line" d="M512.938726,344.442176 L514.245377,345.178833 L530.236657,354.194317 L532.559591,355.50393 L530.234125,356.809043 L514.22542,365.79355 L512.917346,366.527675 L511.449094,363.911526 L512.757169,363.1774 L523.771,356.995 L513.500459,356.98548 L11.9985479,356.499999 L10.4985486,356.498547 L10.5014528,353.498549 L12.0014521,353.500001 L513.503364,353.985482 L523.775,353.995 L512.772062,347.792134 L511.465412,347.055477 L512.938726,344.442176 Z" fill="#000000" fill-rule="nonzero"></path>
        <text id="Coordinate-1" font-family="Helvetica-Light, Helvetica" font-size="20" font-weight="300" fill="#000000">
            <tspan x="396" y="389">Coordinate 1</tspan>
        </text>
        <g id="Group" stroke-width="1" fill-rule="evenodd" transform="translate(396, 36)">
            <text id="Class-1" font-family="Helvetica-Light, Helvetica" font-size="18" font-weight="300" fill="#000000">
                <tspan x="23" y="18">Class 1</tspan>
            </text>
            <text id="Class-2" font-family="Helvetica-Light, Helvetica" font-size="18" font-weight="300" fill="#000000">
                <tspan x="23" y="50">Class 2</tspan>
            </text>
            <circle id="Oval" stroke="#FA6400" fill="#FA6400" cx="8" cy="11" r="7.5"></circle>
            <circle id="Oval" stroke="#44D7B6" fill="#44D7B6" cx="8" cy="43" r="7.5"></circle>
        </g>
        <text id="Separating-Hyperplan" font-family="Helvetica-Light, Helvetica" font-size="18" font-weight="300" fill="#000000">
            <tspan x="157" y="43">Separating Hyperplane</tspan>
            <tspan x="157" y="65">(linear)</tspan>
        </text>
        <line x1="149.5" y1="56.5" x2="133.5" y2="73.5" id="Line-3" stroke="#979797" stroke-width="1" stroke-linecap="square"></line>
        <text id="Coordinate-2" transform="translate(29, 90) rotate(-90) translate(-29, -90)" font-family="Helvetica-Light, Helvetica" font-size="20" font-weight="300" fill="#000000">
            <tspan x="-29" y="97">Coordinate 2</tspan>
        </text>
        <line x1="119.5" y1="74.5" x2="344.5" y2="327.5" id="Line-2" stroke="#000000" stroke-width="3" stroke-linecap="square" stroke-dasharray="6"></line>
        <g id="Group-2" stroke-width="1" fill-rule="evenodd" transform="translate(219, 90)" fill="#FA6400" stroke="#FA6400">
            <circle id="Oval" cx="8" cy="8" r="7.5"></circle>
            <circle id="Oval" cx="37" cy="74" r="7.5"></circle>
            <circle id="Oval" cx="97" cy="81" r="7.5"></circle>
            <circle id="Oval" cx="53" cy="8" r="7.5"></circle>
            <circle id="Oval" cx="16" cy="41" r="7.5"></circle>
            <circle id="Oval" cx="129" cy="88" r="7.5"></circle>
            <circle id="Oval" cx="145" cy="170" r="7.5"></circle>
            <circle id="Oval" cx="105" cy="154" r="7.5"></circle>
            <circle id="Oval" cx="113" cy="114" r="7.5"></circle>
            <circle id="Oval" cx="67" cy="96" r="7.5"></circle>
            <circle id="Oval" cx="83" cy="40" r="7.5"></circle>
        </g>
        <circle id="Oval" stroke="#44D7B6" stroke-width="1" fill="#44D7B6" fill-rule="evenodd" cx="258" cy="308" r="7.5"></circle>
        <circle id="Oval" stroke="#44D7B6" stroke-width="1" fill="#44D7B6" fill-rule="evenodd" cx="194" cy="314" r="7.5"></circle>
        <circle id="Oval" stroke="#44D7B6" stroke-width="1" fill="#44D7B6" fill-rule="evenodd" cx="202" cy="236" r="7.5"></circle>
        <circle id="Oval" stroke="#44D7B6" stroke-width="1" fill="#44D7B6" fill-rule="evenodd" cx="112" cy="195" r="7.5"></circle>
        <circle id="Oval" stroke="#44D7B6" stroke-width="1" fill="#44D7B6" fill-rule="evenodd" cx="88" cy="106" r="7.5"></circle>
        <circle id="Oval" stroke="#44D7B6" stroke-width="1" fill="#44D7B6" fill-rule="evenodd" cx="126" cy="300" r="7.5"></circle>
        <circle id="Oval" stroke="#44D7B6" stroke-width="1" fill="#44D7B6" fill-rule="evenodd" cx="169" cy="276" r="7.5"></circle>
        <circle id="Oval" stroke="#44D7B6" stroke-width="1" fill="#44D7B6" fill-rule="evenodd" cx="219" cy="276" r="7.5"></circle>
        <circle id="Oval" stroke="#44D7B6" stroke-width="1" fill="#44D7B6" fill-rule="evenodd" cx="157" cy="196" r="7.5"></circle>
        <circle id="Oval" stroke="#44D7B6" stroke-width="1" fill="#44D7B6" fill-rule="evenodd" cx="99" cy="252" r="7.5"></circle>
        <circle id="Oval" stroke="#44D7B6" stroke-width="1" fill="#44D7B6" fill-rule="evenodd" cx="148" cy="233" r="7.5"></circle>
        <circle id="Oval" stroke="#44D7B6" stroke-width="1" fill="#44D7B6" fill-rule="evenodd" cx="113" cy="148" r="7.5"></circle>
    </g>
</svg>